<svg width="25" height="25" viewBox="0 0 25 25" fill="none" xmlns="http://www.w3.org/2000/svg">
<path d="M12.5 0C5.59748 0 0 4.66309 0 10.4167C0 16.1702 5.59748 20.8333 12.5 20.8333V25C12.5 25 25 19.4173 25 10.4167C25 4.66309 19.4025 0 12.5 0ZM13.8894 15.7552H11.1106V8.50016H13.8894V15.7552ZM12.5044 6.45752C10.9996 6.45752 10.9908 5.44027 10.9908 5.20426C10.9908 4.96419 10.9908 3.95915 12.5044 3.95915C14.0226 3.95915 14.0181 4.96419 14.0181 5.20426C14.0181 5.44027 14.0092 6.45752 12.5044 6.45752Z" fill="#FFA801"/>
</svg>
