<svg width="25" height="25" viewBox="0 0 25 25" fill="none" xmlns="http://www.w3.org/2000/svg">
<path d="M12.5 0C9.15957 0 6.45161 2.54707 6.45161 5.68904C6.45161 8.83101 9.15957 11.3781 12.5 11.3781C15.8404 11.3781 18.5484 8.83101 18.5484 5.68904C18.5484 2.54707 15.8404 0 12.5 0Z" fill="#FFA801"/>
<path d="M6.04839 14.4122C2.70795 14.4122 0 16.9593 0 20.1013V21.904C0 23.0467 0.880457 24.021 2.07947 24.2051C8.98081 25.265 16.0192 25.265 22.9205 24.2051C24.1195 24.021 25 23.0467 25 21.904V20.1013C25 16.9593 22.292 14.4122 18.9516 14.4122H18.4018C18.1043 14.4122 17.8086 14.4565 17.5257 14.5434L16.1297 14.9721C13.7712 15.6965 11.2288 15.6965 8.8703 14.9721L7.47431 14.5434C7.19144 14.4565 6.89574 14.4122 6.59818 14.4122H6.04839Z" fill="#FFA801"/>
</svg>
