<svg width="30" height="30" viewBox="0 0 30 30" fill="none" xmlns="http://www.w3.org/2000/svg">
<path d="M29.1964 9.375C29.6384 9.375 30 9.05859 30 8.67187V6.32812C30 5.94141 29.6384 5.625 29.1964 5.625H27.8571V2.8125C27.8571 1.25977 26.4174 0 24.6429 0H3.21429C1.43973 0 0 1.25977 0 2.8125V27.1875C0 28.7402 1.43973 30 3.21429 30H24.6429C26.4174 30 27.8571 28.7402 27.8571 27.1875V24.375H29.1964C29.6384 24.375 30 24.0586 30 23.6719V21.3281C30 20.9414 29.6384 20.625 29.1964 20.625H27.8571V16.875H29.1964C29.6384 16.875 30 16.5586 30 16.1719V13.8281C30 13.4414 29.6384 13.125 29.1964 13.125H27.8571V9.375H29.1964ZM24.6429 27.1875H3.21429V2.8125H24.6429V27.1875ZM13.9286 15C16.2924 15 18.2143 13.3184 18.2143 11.25C18.2143 9.18164 16.2924 7.5 13.9286 7.5C11.5647 7.5 9.64286 9.18164 9.64286 11.25C9.64286 13.3184 11.5647 15 13.9286 15ZM7.92857 22.5H19.9286C20.7589 22.5 21.4286 21.9961 21.4286 21.375V20.25C21.4286 18.3867 19.4129 16.875 16.9286 16.875C16.2054 16.875 15.6763 17.3437 13.9286 17.3437C12.1272 17.3437 11.692 16.875 10.9286 16.875C8.4442 16.875 6.42857 18.3867 6.42857 20.25V21.375C6.42857 21.9961 7.09821 22.5 7.92857 22.5Z" fill="white"/>
</svg>
