<svg width="25" height="25" viewBox="0 0 25 25" fill="none" xmlns="http://www.w3.org/2000/svg">
<path d="M8.25893 14.0625H6.02679C5.65848 14.0625 5.35714 13.7988 5.35714 13.4766V11.5234C5.35714 11.2012 5.65848 10.9375 6.02679 10.9375H8.25893C8.62723 10.9375 8.92857 11.2012 8.92857 11.5234V13.4766C8.92857 13.7988 8.62723 14.0625 8.25893 14.0625ZM14.2857 13.4766V11.5234C14.2857 11.2012 13.9844 10.9375 13.6161 10.9375H11.3839C11.0156 10.9375 10.7143 11.2012 10.7143 11.5234V13.4766C10.7143 13.7988 11.0156 14.0625 11.3839 14.0625H13.6161C13.9844 14.0625 14.2857 13.7988 14.2857 13.4766ZM19.6429 13.4766V11.5234C19.6429 11.2012 19.3415 10.9375 18.9732 10.9375H16.7411C16.3728 10.9375 16.0714 11.2012 16.0714 11.5234V13.4766C16.0714 13.7988 16.3728 14.0625 16.7411 14.0625H18.9732C19.3415 14.0625 19.6429 13.7988 19.6429 13.4766ZM14.2857 18.1641V16.2109C14.2857 15.8887 13.9844 15.625 13.6161 15.625H11.3839C11.0156 15.625 10.7143 15.8887 10.7143 16.2109V18.1641C10.7143 18.4863 11.0156 18.75 11.3839 18.75H13.6161C13.9844 18.75 14.2857 18.4863 14.2857 18.1641ZM8.92857 18.1641V16.2109C8.92857 15.8887 8.62723 15.625 8.25893 15.625H6.02679C5.65848 15.625 5.35714 15.8887 5.35714 16.2109V18.1641C5.35714 18.4863 5.65848 18.75 6.02679 18.75H8.25893C8.62723 18.75 8.92857 18.4863 8.92857 18.1641ZM19.6429 18.1641V16.2109C19.6429 15.8887 19.3415 15.625 18.9732 15.625H16.7411C16.3728 15.625 16.0714 15.8887 16.0714 16.2109V18.1641C16.0714 18.4863 16.3728 18.75 16.7411 18.75H18.9732C19.3415 18.75 19.6429 18.4863 19.6429 18.1641ZM25 5.46875V22.6562C25 23.9502 23.8002 25 22.3214 25H2.67857C1.19978 25 0 23.9502 0 22.6562V5.46875C0 4.1748 1.19978 3.125 2.67857 3.125H5.35714V0.585938C5.35714 0.263672 5.65848 0 6.02679 0H8.25893C8.62723 0 8.92857 0.263672 8.92857 0.585938V3.125H16.0714V0.585938C16.0714 0.263672 16.3728 0 16.7411 0H18.9732C19.3415 0 19.6429 0.263672 19.6429 0.585938V3.125H22.3214C23.8002 3.125 25 4.1748 25 5.46875ZM22.3214 22.3633V7.8125H2.67857V22.3633C2.67857 22.5244 2.82924 22.6562 3.01339 22.6562H21.9866C22.1708 22.6562 22.3214 22.5244 22.3214 22.3633Z" fill="#5A5A5A"/>
</svg>
