<svg width="30" height="33" viewBox="0 0 30 33" fill="none" xmlns="http://www.w3.org/2000/svg">
<path d="M27.5 0H2.5C1.11979 0 0 1.58371 0 3.53571V29.4643C0 31.4163 1.11979 33 2.5 33H27.5C28.8802 33 30 31.4163 30 29.4643V3.53571C30 1.58371 28.8802 0 27.5 0ZM27.5 29.4643H2.5V3.53571H27.5V29.4643ZM10.8333 15.9107C12.6719 15.9107 14.1667 14.3859 14.1667 11.7857C14.1667 9.18549 12.6719 8 10.8333 8C8.99479 8 7.5 9.18549 7.5 11.7857C7.5 14.3859 8.99479 15.9107 10.8333 15.9107ZM6.16667 25.9286H15.5C16.1458 25.9286 16.6667 25.2951 16.6667 24.5143V23.1C16.6667 20.7576 15.099 18.8571 13.1667 18.8571C12.6042 18.8571 12.1927 19.4464 10.8333 19.4464C9.43229 19.4464 9.09375 18.8571 8.5 18.8571C6.56771 18.8571 5 20.7576 5 23.1V24.5143C5 25.2951 5.52083 25.9286 6.16667 25.9286ZM18.75 21.2143H24.5833C24.8125 21.2143 25 20.9491 25 20.625V19.4464C25 19.1223 24.8125 18.8571 24.5833 18.8571H18.75C18.5208 18.8571 18.3333 19.1223 18.3333 19.4464V20.625C18.3333 20.9491 18.5208 21.2143 18.75 21.2143ZM18.75 16.5H24.5833C24.8125 16.5 25 16.2348 25 15.9107V14.7321C25 14.408 24.8125 14.1429 24.5833 14.1429H18.75C18.5208 14.1429 18.3333 14.408 18.3333 14.7321V15.9107C18.3333 16.2348 18.5208 16.5 18.75 16.5ZM18.75 11.7857H24.5833C24.8125 11.7857 25 11.5205 25 11.1964V10.0179C25 9.69375 24.8125 9.42857 24.5833 9.42857H18.75C18.5208 9.42857 18.3333 9.69375 18.3333 10.0179V11.1964C18.3333 11.5205 18.5208 11.7857 18.75 11.7857Z" fill="white"/>
</svg>
