<svg width="30" height="23" viewBox="0 0 30 23" fill="none" xmlns="http://www.w3.org/2000/svg">
<path d="M27.1875 3.83333H15.9375L12.1875 0H2.8125C1.25918 0 0 1.28716 0 2.875V20.125C0 21.7128 1.25918 23 2.8125 23H27.1875C28.7408 23 30 21.7128 30 20.125V6.70833C30 5.12049 28.7408 3.83333 27.1875 3.83333ZM21.5625 13.8958C21.5625 14.4253 21.143 14.8542 20.625 14.8542H9.375C8.85703 14.8542 8.4375 14.4253 8.4375 13.8958V12.9375C8.4375 12.408 8.85703 11.9792 9.375 11.9792H20.625C21.143 11.9792 21.5625 12.408 21.5625 12.9375V13.8958Z" fill="#FFA801"/>
</svg>
