<svg width="30" height="33" viewBox="0 0 30 33" fill="none" xmlns="http://www.w3.org/2000/svg">
<path d="M30 7.85948V8.25H20V0H20.4734C20.9706 2.14498e-06 21.4475 0.162965 21.7991 0.453041L29.4508 6.76564C29.8024 7.05575 30 7.44921 30 7.85948ZM19.375 10.3125C18.3438 10.3125 17.5 9.61641 17.5 8.76563V0H1.875C0.839453 0 0 0.692549 0 1.54688V31.4531C0 32.3075 0.839453 33 1.875 33H28.125C29.1605 33 30 32.3075 30 31.4531V10.3125H19.375ZM8.79258 11.3438C10.8637 11.3438 12.5426 12.7288 12.5426 14.4375C12.5426 16.1462 10.8637 17.5313 8.79258 17.5313C6.72148 17.5313 5.04258 16.1462 5.04258 14.4375C5.04258 12.7288 6.72156 11.3438 8.79258 11.3438ZM25.0426 26.8125H5.04258L5.08047 23.6875L8.16758 21.1406C8.53367 20.8386 9.08938 20.8699 9.45547 21.1719L12.5426 23.7188L20.6297 17.0469C20.9958 16.7449 21.5894 16.7449 21.9555 17.0469L25.0426 19.5938V26.8125Z" fill="white"/>
</svg>
