<svg width="25" height="25" viewBox="0 0 25 25" fill="none" xmlns="http://www.w3.org/2000/svg">
<path d="M15.4547 1.04962C13.8385 -0.34987 11.1616 -0.349872 9.54538 1.04961L1.65142 7.88516C1.19806 8.27774 0.893413 8.77403 0.77586 9.31152C-0.182836 13.695 -0.253603 18.1825 0.566533 22.5857L0.856898 24.1446C0.94861 24.637 1.45442 25 2.0488 25H7.56475C8.01903 25 8.3873 24.6912 8.3873 24.3103V14.6551H16.6128V24.3103C16.6128 24.6912 16.981 25 17.4353 25H22.9512C23.5456 25 24.0514 24.637 24.1431 24.1446L24.4335 22.5857C25.2536 18.1825 25.1828 13.695 24.2241 9.31152C24.1066 8.77403 23.8019 8.27774 23.3486 7.88516L15.4547 1.04962Z" fill="#E2E2E2"/>
</svg>
