<svg width="20" height="20" viewBox="0 0 20 20" fill="none" xmlns="http://www.w3.org/2000/svg">
<path d="M17.8571 8.75H16.7857V5.9375C16.7857 2.66406 13.7411 0 10 0C6.25893 0 3.21429 2.66406 3.21429 5.9375V8.75H2.14286C0.959821 8.75 0 9.58984 0 10.625V18.125C0 19.1602 0.959821 20 2.14286 20H17.8571C19.0402 20 20 19.1602 20 18.125V10.625C20 9.58984 19.0402 8.75 17.8571 8.75ZM13.2143 8.75H6.78571V5.9375C6.78571 4.38672 8.22768 3.125 10 3.125C11.7723 3.125 13.2143 4.38672 13.2143 5.9375V8.75Z" fill="#FFA801"/>
</svg>
