<svg width="30" height="33" viewBox="0 0 30 33" fill="none" xmlns="http://www.w3.org/2000/svg">
<path d="M24.7159 3.88235H2.55682C1.14471 3.88235 0 5.27909 0 7.0021V29.8803C0 31.6033 1.14471 33 2.55682 33H24.7159C26.128 33 27.2727 31.6033 27.2727 29.8803V7.0021C27.2727 5.27909 26.128 3.88235 24.7159 3.88235ZM24.3963 29.8803H2.87642C2.79166 29.8803 2.71036 29.8392 2.65043 29.766C2.59049 29.6929 2.55682 29.5937 2.55682 29.4903V7.39207C2.55682 7.28864 2.59049 7.18946 2.65043 7.11632C2.71036 7.04319 2.79166 7.0021 2.87642 7.0021H24.3963C24.4811 7.0021 24.5624 7.04319 24.6223 7.11632C24.6822 7.18946 24.7159 7.28864 24.7159 7.39207V29.4903C24.7159 29.5937 24.6822 29.6929 24.6223 29.766C24.5624 29.8392 24.4811 29.8803 24.3963 29.8803ZM22.1591 23.9007V25.4606C22.1591 25.8913 21.8729 26.2405 21.5199 26.2405H10.8665C10.5135 26.2405 10.2273 25.8913 10.2273 25.4606V23.9007C10.2273 23.47 10.5135 23.1208 10.8665 23.1208H21.5199C21.8729 23.1208 22.1591 23.47 22.1591 23.9007ZM22.1591 17.6612V19.2211C22.1591 19.6518 21.8729 20.0011 21.5199 20.0011H10.8665C10.5135 20.0011 10.2273 19.6518 10.2273 19.2211V17.6612C10.2273 17.2305 10.5135 16.8813 10.8665 16.8813H21.5199C21.8729 16.8813 22.1591 17.2305 22.1591 17.6612ZM22.1591 11.4217V12.9816C22.1591 13.4123 21.8729 13.7616 21.5199 13.7616H10.8665C10.5135 13.7616 10.2273 13.4123 10.2273 12.9816V11.4217C10.2273 10.991 10.5135 10.6418 10.8665 10.6418H21.5199C21.8729 10.6418 22.1591 10.991 22.1591 11.4217ZM8.7358 12.2017C8.7358 13.4939 7.87724 14.5415 6.81818 14.5415C5.75913 14.5415 4.90057 13.4939 4.90057 12.2017C4.90057 10.9095 5.75913 9.86187 6.81818 9.86187C7.87724 9.86187 8.7358 10.9095 8.7358 12.2017ZM8.7358 18.4412C8.7358 19.7334 7.87724 20.781 6.81818 20.781C5.75913 20.781 4.90057 19.7334 4.90057 18.4412C4.90057 17.149 5.75913 16.1014 6.81818 16.1014C7.87724 16.1014 8.7358 17.149 8.7358 18.4412ZM8.7358 24.6807C8.7358 25.9729 7.87724 27.0205 6.81818 27.0205C5.75913 27.0205 4.90057 25.9729 4.90057 24.6807C4.90057 23.3884 5.75913 22.3409 6.81818 22.3409C7.87724 22.3409 8.7358 23.3884 8.7358 24.6807Z" fill="white"/>
<ellipse cx="23.1818" cy="7.2794" rx="5" ry="5.33824" fill="#7B7B7B"/>
<path d="M30 7.27941C30 11.2997 26.9474 14.5588 23.1818 14.5588C19.4162 14.5588 16.3636 11.2997 16.3636 7.27941C16.3636 3.25909 19.4162 0 23.1818 0C26.9474 0 30 3.25909 30 7.27941ZM22.3932 11.1338L27.4518 5.73295C27.6236 5.54955 27.6236 5.25218 27.4518 5.06879L26.8297 4.40463C26.658 4.22121 26.3794 4.22121 26.2076 4.40463L22.0821 8.8092L20.156 6.7528C19.9842 6.56941 19.7057 6.56941 19.5339 6.7528L18.9118 7.41696C18.74 7.60035 18.74 7.89772 18.9118 8.08112L21.7711 11.1338C21.9429 11.3172 22.2214 11.3172 22.3932 11.1338V11.1338Z" fill="white"/>
</svg>
