<svg width="25" height="25" viewBox="0 0 25 25" fill="none" xmlns="http://www.w3.org/2000/svg">
<path d="M12.5 0C5.59668 0 0 5.19643 0 11.6071C0 14.3728 1.04541 16.909 2.78418 18.9029C2.1709 21.7104 0.131836 24.2171 0.107422 24.2467C0.0548452 24.3099 0.0196621 24.3895 0.00622807 24.4754C-0.00720592 24.5613 0.00169908 24.6498 0.0318407 24.73C0.0619823 24.8101 0.112037 24.8785 0.175808 24.9265C0.239579 24.9745 0.314267 25 0.390625 25C3.62598 25 6.0542 23.2282 7.25586 22.1328C8.85205 22.8198 10.6245 23.2143 12.5 23.2143C19.4033 23.2143 25 18.0179 25 11.6071C25 5.19643 19.4033 0 12.5 0ZM13.6719 16.8772V17.8571C13.6719 18.3504 13.3223 18.75 12.8906 18.75H12.1094C11.6777 18.75 11.3281 18.3504 11.3281 17.8571V16.8677C10.7705 16.7924 10.2402 16.5781 9.77637 16.2282C9.47266 15.9989 9.44336 15.4967 9.70068 15.2026L10.5562 14.2249C10.7388 14.0162 11.0107 13.9883 11.2451 14.1116C11.4004 14.1931 11.5703 14.2355 11.7461 14.2355H13.3467C13.5742 14.2355 13.7588 14.0246 13.7588 13.7656C13.7588 13.5564 13.6357 13.3705 13.46 13.3131L11.0151 12.5151C9.92871 12.1607 9.06152 11.1362 8.91992 9.85491C8.72217 8.06529 9.84912 6.5385 11.3281 6.3365V5.35714C11.3281 4.86384 11.6777 4.46429 12.1094 4.46429H12.8906C13.3223 4.46429 13.6719 4.86384 13.6719 5.35714V6.34654C14.2295 6.42187 14.7598 6.63616 15.2236 6.98605C15.5273 7.2154 15.5566 7.71763 15.2993 8.01172L14.4438 8.9894C14.2612 9.1981 13.9893 9.226 13.7549 9.10268C13.5977 9.02053 13.4268 8.97827 13.2539 8.97879H11.6533C11.4258 8.97879 11.2412 9.18973 11.2412 9.44866C11.2412 9.65792 11.3643 9.84375 11.54 9.90123L13.9849 10.6992C15.0713 11.0541 15.9385 12.0781 16.0801 13.3594C16.2778 15.1484 15.1509 16.6752 13.6719 16.8772V16.8772Z" fill="#E2E2E2"/>
</svg>
