<svg width="30" height="30" viewBox="0 0 30 30" fill="none" xmlns="http://www.w3.org/2000/svg">
<path d="M15 6.66669C12.4761 6.66669 10.4301 8.57957 10.4301 10.9392C10.4301 13.2989 12.4761 15.2118 15 15.2118C17.5239 15.2118 19.5699 13.2989 19.5699 10.9392C19.5699 8.57957 17.5239 6.66669 15 6.66669Z" fill="#4C4C4C"/>
<path d="M10.1254 17.4905C7.60155 17.4905 5.55554 19.4034 5.55554 21.763V23.1169C5.55554 23.9751 5.65105 24.226 6.66665 25C11.7975 28.9103 18.2025 28.9103 23.3333 25C23.9992 24.4925 24.4444 23.9751 24.4444 23.1169V21.763C24.4444 19.4034 22.3984 17.4905 19.8745 17.4905H19.4591C19.2343 17.4905 19.0109 17.5237 18.7972 17.589L17.7424 17.911C15.9604 18.455 14.0395 18.455 12.2575 17.911L11.2028 17.589C10.9891 17.5237 10.7657 17.4905 10.5408 17.4905H10.1254Z" fill="#4C4C4C"/>
<circle cx="15" cy="15" r="14" stroke="#4C4C4C" stroke-width="2"/>
</svg>
