<svg width="20" height="20" viewBox="0 0 20 20" fill="none" xmlns="http://www.w3.org/2000/svg">
<path d="M10 0C7.32765 0 5.16129 2.03766 5.16129 4.55123C5.16129 7.06481 7.32765 9.10246 10 9.10246C12.6723 9.10246 14.8387 7.06481 14.8387 4.55123C14.8387 2.03766 12.6723 0 10 0Z" fill="#FFA801"/>
<path d="M4.83871 11.5298C2.16636 11.5298 0 13.5674 0 16.081V17.5232C0 18.4374 0.704366 19.2168 1.66358 19.3641C7.18464 20.212 12.8154 20.212 18.3364 19.3641C19.2956 19.2168 20 18.4374 20 17.5232V16.081C20 13.5674 17.8336 11.5298 15.1613 11.5298H14.7215C14.4834 11.5298 14.2468 11.5652 14.0206 11.6347L12.9038 11.9777C11.0169 12.5572 8.98306 12.5572 7.09624 11.9777L5.97945 11.6347C5.75315 11.5652 5.51659 11.5298 5.27854 11.5298H4.83871Z" fill="#FFA801"/>
</svg>
